# xmcd CD database file generated by LOLA_Freedb v0.9beta0
# 
# Track frame offsets:
#      150
#      26324
#      46205
#      66145
#      89896
#      109646
#      152544
#      171351
# 
# Disc length: 2694 seconds
# 
# Revision: 0 
# Processed by: cddbd v1.5.2PL0 Copyright (c) Steve Scherf et al.
# Submitted via: LOLA_Freedb v0.9beta0
# 
DISCID=5f0a8408
DTITLE=Willie Hutch - Havin' A House Party
DYEAR=1977
DGENRE=
TTITLE0=Willie's Boogie
TTITLE1=We Gonna Have A House Party
TTITLE2=What You Gonna Do After The Party
TTITLE3=I Can Sho' Give You Love
TTITLE4=I Never Had It So Good
TTITLE5=We Gonna Party Tonight
TTITLE6=After Love Is Gone
TTITLE7=Train Of Love
EXTD=
EXTT0=
EXTT1=
EXTT2=
EXTT3=
EXTT4=
EXTT5=
EXTT6=
EXTT7=
PLAYORDER=
